<svg width="100" height="100" xmlns="http://www.w3.org/2000/svg" xmlns:svg="http://www.w3.org/2000/svg" version="1.1" xml:space="preserve">
 <g class="layer">
  <g id="svg_1" transform="matrix(1 0 0 1 -150 0)">
   <path d="m164,6c-4.38,0 -8,3.62 -8,8l0,44c0,4.38 3.62,8 8,8l22.75,0l-4.34,7.47c-0.54,0.93 -0.55,2.08 -0.03,3.02c0.55,0.93 1.54,1.5 2.62,1.51l30,0c1.08,-0.01 2.07,-0.58 2.62,-1.51c0.52,-0.94 0.51,-2.09 -0.03,-3.02l-4.34,-7.47l22.75,0c4.38,0 8,-3.62 8,-8l0,-44c0,-4.38 -3.62,-8 -8,-8l-72,0zm0,6l72,0c1.16,0 2,0.84 2,2l0,44c0,1.16 -0.84,2 -2,2l-72,0c-1.16,0 -2,-0.84 -2,-2l0,-44c0,-1.16 0.84,-2 2,-2zm40.88,7.94c-1.18,0.05 -2.29,0.86 -2.69,1.97l-10,26c-0.57,1.47 0.26,3.32 1.73,3.89c1.47,0.56 3.33,-0.27 3.89,-1.74l10,-26c0.38,-0.95 0.25,-2.03 -0.33,-2.87c-0.61,-0.82 -1.58,-1.3 -2.6,-1.25zm-18.88,5.03c-0.47,0.01 -0.93,0.13 -1.34,0.34l-16,8c-1,0.53 -1.62,1.55 -1.64,2.67c0,1.1 0.66,2.18 1.64,2.68l16,8c1.41,0.85 3.49,0.25 4.23,-1.22c0.75,-1.48 -0.02,-3.51 -1.55,-4.13l-10.65,-5.31l10.65,-5.34c1.21,-0.6 1.9,-2.07 1.59,-3.38c-0.31,-1.31 -1.59,-2.32 -2.93,-2.31zm27.91,0c-1.33,0.03 -2.57,1.06 -2.85,2.35c-0.29,1.3 0.41,2.75 1.6,3.34l10.65,5.34l-10.65,5.31c-1.53,0.62 -2.3,2.66 -1.55,4.13c0.74,1.48 2.82,2.07 4.23,1.22l16,-8c1,-0.53 1.62,-1.55 1.64,-2.67c-0.02,-1.13 -0.64,-2.15 -1.64,-2.68l-16,-8c-0.44,-0.23 -0.93,-0.35 -1.43,-0.34zm-20.19,41.03l12.56,0l3.5,6l-19.56,0l3.5,-6zm-26.41,15.66l-5,10c-0.45,0.93 -0.4,2.03 0.13,2.92c0.56,0.88 1.52,1.41 2.56,1.42l70,0c1.04,-0.01 2,-0.54 2.56,-1.42c0.53,-0.89 0.58,-1.99 0.13,-2.92l-5,-10c-0.52,-1.01 -1.56,-1.65 -2.69,-1.66l-60,0c-1.13,0 -2.26,0.8 -2.69,1.66zm4.57,4.34l56.25,0l2,4l-60.25,0l2,-4z" fill="currentColor" fill-rule="nonzero" id="svg_2" stroke-dashoffset="0" stroke-miterlimit="4" stroke-width="0"/>
  </g>
 </g>
</svg>