<svg width="320" height="100" xmlns="http://www.w3.org/2000/svg" xmlns:svg="http://www.w3.org/2000/svg" version="1.1" xml:space="preserve">
 <g class="layer">
  <title>Dev++</title>
  <g id="svg_1" transform="matrix(1 0 0 1 -150 0)">
   <path d="m164,6c-4.38,0 -8,3.62 -8,8l0,44c0,4.38 3.62,8 8,8l22.75,0l-4.34,7.47c-0.54,0.93 -0.55,2.08 -0.03,3.02c0.55,0.93 1.54,1.5 2.62,1.51l30,0c1.08,-0.01 2.07,-0.58 2.62,-1.51c0.52,-0.94 0.51,-2.09 -0.03,-3.02l-4.34,-7.47l22.75,0c4.38,0 8,-3.62 8,-8l0,-44c0,-4.38 -3.62,-8 -8,-8l-72,0zm0,6l72,0c1.16,0 2,0.84 2,2l0,44c0,1.16 -0.84,2 -2,2l-72,0c-1.16,0 -2,-0.84 -2,-2l0,-44c0,-1.16 0.84,-2 2,-2zm40.88,7.94c-1.18,0.05 -2.29,0.86 -2.69,1.97l-10,26c-0.57,1.47 0.26,3.32 1.73,3.89c1.47,0.56 3.33,-0.27 3.89,-1.74l10,-26c0.38,-0.95 0.25,-2.03 -0.33,-2.87c-0.61,-0.82 -1.58,-1.3 -2.6,-1.25zm-18.88,5.03c-0.47,0.01 -0.93,0.13 -1.34,0.34l-16,8c-1,0.53 -1.62,1.55 -1.64,2.67c0,1.1 0.66,2.18 1.64,2.68l16,8c1.41,0.85 3.49,0.25 4.23,-1.22c0.75,-1.48 -0.02,-3.51 -1.55,-4.13l-10.65,-5.31l10.65,-5.34c1.21,-0.6 1.9,-2.07 1.59,-3.38c-0.31,-1.31 -1.59,-2.32 -2.93,-2.31zm27.91,0c-1.33,0.03 -2.57,1.06 -2.85,2.35c-0.29,1.3 0.41,2.75 1.6,3.34l10.65,5.34l-10.65,5.31c-1.53,0.62 -2.3,2.66 -1.55,4.13c0.74,1.48 2.82,2.07 4.23,1.22l16,-8c1,-0.53 1.62,-1.55 1.64,-2.67c-0.02,-1.13 -0.64,-2.15 -1.64,-2.68l-16,-8c-0.44,-0.23 -0.93,-0.35 -1.43,-0.34zm-20.19,41.03l12.56,0l3.5,6l-19.56,0l3.5,-6zm-26.41,15.66l-5,10c-0.45,0.93 -0.4,2.03 0.13,2.92c0.56,0.88 1.52,1.41 2.56,1.42l70,0c1.04,-0.01 2,-0.54 2.56,-1.42c0.53,-0.89 0.58,-1.99 0.13,-2.92l-5,-10c-0.52,-1.01 -1.56,-1.65 -2.69,-1.66l-60,0c-1.13,0 -2.26,0.8 -2.69,1.66zm4.57,4.34l56.25,0l2,4l-60.25,0l2,-4z" fill="rgb(21,130,199)" fill-rule="nonzero" id="svg_2" stroke-dashoffset="0" stroke-miterlimit="4" stroke-width="0"/>
  </g>
  <path d="m109.44,19.19l0,33.43q0.76,0.08 1.99,0.11q1.25,0.04 3.39,0.04q8.78,0 13.08,-4.45q4.32,-4.45 4.32,-12.47q0,-8.16 -4.22,-12.51q-4.2,-4.35 -13.04,-4.35q-3.88,0 -5.53,0.19l0.01,0.01zm31.91,16.64q0,6.23 -1.93,10.81q-1.93,4.6 -5.49,7.67q-3.56,3.07 -8.56,4.56q-5,1.48 -11.09,1.48q-2.9,0 -6.55,-0.25q-3.67,-0.23 -6.97,-0.98l0,-46.49q3.31,-0.76 7.04,-0.98q3.73,-0.21 6.64,-0.21q6,0 10.98,1.42q4.96,1.42 8.52,4.43q3.56,2.99 5.49,7.59q1.93,4.58 1.93,10.94l-0.01,0.01zm41.93,23.98l-32.39,0l0,-47.87l30.74,0l0,7.4l-22.05,0l0,11.81l19.63,0l0,7.25l-19.63,0l0,14.01l23.7,0l0,7.4z" fill="rgb(21,130,199)" fill-rule="nonzero" id="svg_4" stroke-dashoffset="0" stroke-miterlimit="4"/>
  <path d="m215.81,60.25l-8.37,0q-5.17,-11.19 -9.99,-23.43q-4.79,-12.21 -8.93,-24.44l9.6,0l3.37,9.88q1.74,5.05 3.46,9.92q1.72,4.88 3.46,9.41q1.72,4.56 3.39,8.37q1.59,-3.82 3.31,-8.33q1.72,-4.52 3.5,-9.41q1.74,-4.92 3.48,-9.96q1.74,-5.05 3.31,-9.88l9.33,0q-4.22,12.23 -8.97,24.44q-4.77,12.23 -9.94,23.43l-0.01,0zm22.98,-16.24l0,-7.04l12.3,0l0,-13.53l7.46,0l0,13.53l12.3,0l0,7.04l-12.3,0l0,13.55l-7.46,0l0,-13.55l-12.3,0zm39.24,0l0,-7.04l12.27,0l0,-13.53l7.48,0l0,13.53l12.27,0l0,7.04l-12.27,0l0,13.55l-7.48,0l0,-13.55l-12.27,0z" fill="rgb(21,130,199)" fill-rule="nonzero" id="svg_6" stroke-dashoffset="0" stroke-miterlimit="4"/>
  <g id="svg_7" transform="matrix(2.12 0 0 2.12 636.28 547.99)">
   <path d="m-44.78,-85.03l14.7,0l0,1l-14.7,0l0,-1zm73.36,0l14.7,0l0,1l-14.7,0l0,-1zm-55.66,2.23l0,-3.46l0.52,0l0.67,1.86l0.25,0.71l0.03,0l0.24,-0.71l0.66,-1.86l0.52,0l0,3.46l-0.42,0l0,-1.9q0,-0.23 0.02,-0.52q0.02,-0.27 0.04,-0.51l-0.02,0l-0.28,0.77l-0.66,1.82l-0.25,0l-0.67,-1.82l-0.28,-0.77l-0.02,0q0.02,0.24 0.04,0.51q0.02,0.29 0.02,0.52l0,1.9l-0.41,0zm4.27,-1.4l1.05,0l-0.17,-0.53q-0.09,-0.29 -0.18,-0.58q-0.08,-0.29 -0.17,-0.59l-0.02,0q-0.08,0.3 -0.16,0.59q-0.09,0.29 -0.18,0.58l-0.17,0.53zm1.48,1.4l-0.32,-1.05l-1.27,0l-0.33,1.05l-0.45,0l1.17,-3.46l0.5,0l1.17,3.46l-0.47,0zm0.97,0l0,-3.46l0.43,0l0,1.74l0.02,0l1.44,-1.74l0.5,0l-1.09,1.32l1.26,2.14l-0.5,0l-1.03,-1.8l-0.6,0.7l0,1.1l-0.43,0zm3.05,0l0,-3.46l2,0l0,0.37l-1.56,0l0,1.09l1.31,0l0,0.37l-1.31,0l0,1.26l1.61,0l0,0.37l-2.05,0zm3.85,0l0,-3.46l0.87,0q0.8,0 1.21,0.45q0.42,0.44 0.42,1.27q0,0.41 -0.1,0.73q-0.11,0.33 -0.32,0.55q-0.2,0.23 -0.5,0.35q-0.3,0.11 -0.69,0.11l-0.89,0zm0.44,-0.36l0.39,0q0.61,0 0.92,-0.36q0.3,-0.36 0.3,-1.02q0,-0.66 -0.3,-1.01q-0.31,-0.35 -0.91,-0.35l-0.4,0l0,2.74zm2.81,0.36l0,-3.46l1.99,0l0,0.37l-1.55,0l0,1.09l1.31,0l0,0.37l-1.31,0l0,1.26l1.61,0l0,0.37l-2.05,0zm3.42,0l-1.12,-3.46l0.47,0l0.56,1.87q0.09,0.31 0.16,0.57q0.07,0.27 0.17,0.58l0.03,0q0.09,-0.31 0.16,-0.58q0.08,-0.26 0.17,-0.57l0.56,-1.87l0.44,0l-1.09,3.46l-0.51,0zm2.08,0l0,-3.46l1.99,0l0,0.37l-1.55,0l0,1.09l1.31,0l0,0.37l-1.31,0l0,1.26l1.61,0l0,0.37l-2.05,0zm2.78,0l0,-3.46l0.44,0l0,3.09l1.51,0l0,0.37l-1.95,0zm3.71,0.07q-0.33,0 -0.6,-0.13q-0.28,-0.12 -0.47,-0.36q-0.19,-0.24 -0.3,-0.57q-0.11,-0.33 -0.11,-0.75q0,-0.42 0.11,-0.75q0.11,-0.33 0.3,-0.56q0.19,-0.23 0.47,-0.35q0.27,-0.12 0.6,-0.12q0.33,0 0.6,0.12q0.27,0.13 0.47,0.36q0.19,0.22 0.3,0.55q0.11,0.33 0.11,0.75q0,0.42 -0.11,0.75q-0.11,0.33 -0.3,0.57q-0.2,0.24 -0.47,0.36q-0.27,0.13 -0.6,0.13zm0,-0.39q0.23,0 0.42,-0.1q0.18,-0.1 0.32,-0.28q0.14,-0.19 0.21,-0.45q0.07,-0.27 0.07,-0.59q0,-0.32 -0.07,-0.58q-0.07,-0.26 -0.21,-0.44q-0.14,-0.18 -0.32,-0.28q-0.19,-0.1 -0.42,-0.1q-0.23,0 -0.42,0.1q-0.19,0.1 -0.32,0.28q-0.14,0.18 -0.21,0.44q-0.07,0.26 -0.07,0.58q0,0.32 0.07,0.59q0.07,0.26 0.21,0.45q0.13,0.18 0.32,0.28q0.19,0.1 0.42,0.1zm2.23,0.32l0,-3.46l1.06,0q0.28,0 0.52,0.05q0.24,0.06 0.41,0.18q0.16,0.11 0.25,0.31q0.09,0.2 0.09,0.48q0,0.27 -0.09,0.47q-0.09,0.21 -0.26,0.34q-0.17,0.13 -0.4,0.2q-0.24,0.06 -0.52,0.06l-0.63,0l0,1.37l-0.43,0zm0.43,-1.73l0.57,0q0.46,0 0.68,-0.17q0.22,-0.17 0.22,-0.54q0,-0.38 -0.23,-0.52q-0.22,-0.15 -0.67,-0.15l-0.57,0l0,1.38zm2.61,1.73l0,-3.46l0.52,0l0.67,1.86l0.25,0.71l0.02,0l0.24,-0.71l0.67,-1.86l0.51,0l0,3.46l-0.41,0l0,-1.9q0,-0.23 0.02,-0.52q0.02,-0.27 0.04,-0.51l-0.02,0l-0.29,0.77l-0.66,1.82l-0.25,0l-0.67,-1.82l-0.27,-0.77l-0.03,0l0.04,0.51q0.02,0.29 0.02,0.52l0,1.9l-0.4,0zm3.83,0l0,-3.46l2,0l0,0.37l-1.56,0l0,1.09l1.32,0l0,0.37l-1.32,0l0,1.26l1.61,0l0,0.37l-2.05,0zm2.79,0l0,-3.46l0.45,0l1.25,2.18l0.38,0.71l0.02,0q-0.02,-0.26 -0.03,-0.54q-0.02,-0.28 -0.02,-0.56l0,-1.79l0.41,0l0,3.46l-0.45,0l-1.26,-2.18l-0.37,-0.71l-0.02,0q0.02,0.26 0.04,0.54q0.02,0.27 0.02,0.54l0,1.81l-0.42,0zm4.13,0l0,-3.09l-1.04,0l0,-0.37l2.53,0l0,0.37l-1.04,0l0,3.09l-0.45,0zm3.85,-0.55l0,-1.03l-0.96,0l0,-0.32l0.96,0l0,-1.03l0.34,0l0,1.03l0.96,0l0,0.32l-0.96,0l0,1.03l-0.34,0zm2.62,0l0,-1.03l-0.96,0l0,-0.32l0.96,0l0,-1.03l0.34,0l0,1.03l0.97,0l0,0.32l-0.97,0l0,1.03l-0.34,0z" fill="rgb(51,51,51)" fill-rule="nonzero" id="svg_8" stroke-dashoffset="0" stroke-miterlimit="4" transform="translate(-203.5 -139.53)"/>
  </g>
 </g>
</svg>